# xmcd
#
# Track frame offsets:
#  150
#  20329
#  40872
#  61553
#  79921
#  99017
#  115716
#  134771
#  153104
#  171320
#  189464
#  214298
#  234060
#  255678
#
# Disc length: 3621 seconds
#
# Revision: 0
# Processed by: cddbd v1.4PL0 Copyright (c) Steve Scherf et al.
# Submitted via: AltoMP3_Maker 3.0
#
DISCID=aa0e230e
DTITLE=Lani Misalucha - Loving You
DYEAR=1900
DGENRE=
TTITLE0=Tila
TTITLE1=Sinaktan Ang Puso
TTITLE2=Sayang At Sinayang Mo
TTITLE3=Tag Araw, Tag Ulan
TTITLE4=Makayanan Ko Kaya
TTITLE5=Forgive Me For Dreaming
TTITLE6=Muntik Nang Maabot Ang Langit
TTITLE7=Ibigin Mo Ako
TTITLE8=Malaya Ka Na
TTITLE9=Loving You
TTITLE10=Di Mo Ba Alam
TTITLE11=The Only One
TTITLE12=My Love And I
TTITLE13=Pinapangarap, Pinapanaginip
EXTD=
EXTT0=
EXTT1=
EXTT2=
EXTT3=
EXTT4=
EXTT5=
EXTT6=
EXTT7=
EXTT8=
EXTT9=
EXTT10=
EXTT11=
EXTT12=
EXTT13=
PLAYORDER=
